<?xml version="1.0" encoding="UTF-8" ?>
<!DOCTYPE svg PUBLIC "-//W3C//DTD SVG 1.1//EN" "http://www.w3.org/Graphics/SVG/1.1/DTD/svg11.dtd">
<svg width="200pt" height="200pt" viewBox="0 0 200 200" version="1.1" xmlns="http://www.w3.org/2000/svg">
<g id="#1b65b5fc">
<path fill="#1b65b5" opacity="1.00" d=" M 0.00 0.00 L 0.63 0.00 C 0.47 0.16 0.16 0.47 0.00 0.63 L 0.00 0.00 Z" />
<path fill="#1b65b5" opacity="1.00" d=" M 98.15 2.20 C 102.44 1.52 106.17 4.83 110.29 5.70 C 129.29 11.42 148.30 17.26 167.04 23.89 C 174.23 26.09 182.49 29.71 184.23 37.89 C 186.60 52.72 183.38 67.65 181.51 82.35 C 177.83 105.56 170.51 128.48 156.87 147.84 C 150.06 158.73 140.13 167.08 131.27 176.27 C 121.45 184.29 111.60 192.61 100.01 197.93 C 91.16 194.45 83.59 188.63 76.16 182.87 C 56.57 170.02 43.02 150.21 31.97 130.02 C 19.03 102.70 14.78 72.02 15.16 42.06 C 15.16 35.04 20.70 29.66 26.17 26.24 C 49.68 16.72 74.55 11.44 98.15 2.20 M 79.20 64.16 C 75.67 66.53 74.26 69.80 74.97 73.98 C 75.05 90.64 74.93 107.31 75.03 123.97 C 77.76 123.98 83.21 123.98 85.94 123.98 C 86.18 108.01 85.84 92.03 86.03 76.06 C 100.34 75.81 114.65 76.17 128.96 75.97 C 129.08 71.99 129.09 68.02 128.97 64.04 C 112.38 64.04 95.79 63.81 79.20 64.16 M 90.05 88.03 C 89.91 92.00 89.91 95.96 90.02 99.93 C 101.33 100.16 112.65 99.96 123.95 99.97 C 124.08 96.00 124.09 92.03 123.98 88.07 C 112.67 87.84 101.35 88.04 90.05 88.03 M 47.89 144.03 C 48.48 147.48 51.44 149.92 53.14 152.84 C 64.48 168.61 80.21 180.58 97.08 189.89 C 101.66 192.51 105.98 187.71 109.79 185.79 C 126.45 176.47 140.37 162.75 150.95 146.95 C 151.62 146.08 151.99 145.11 152.08 144.01 C 149.11 144.08 145.82 143.44 143.31 145.33 C 135.39 152.40 128.86 161.02 120.01 167.02 C 113.48 171.08 107.62 176.86 100.00 178.84 C 95.08 177.84 91.31 174.31 87.00 171.99 C 75.65 165.36 67.01 155.39 57.77 146.24 C 55.10 143.76 51.44 143.27 47.89 144.03 Z" />
</g>
<g id="#dbecf8ff">
<path fill="#dbecf8" opacity="1.00" d=" M 79.20 64.16 C 95.79 63.81 112.38 64.04 128.97 64.04 C 129.09 68.02 129.08 71.99 128.96 75.97 C 114.65 76.17 100.34 75.81 86.03 76.06 C 85.84 92.03 86.18 108.01 85.94 123.98 C 83.21 123.98 77.76 123.98 75.03 123.97 C 74.93 107.31 75.05 90.64 74.97 73.98 C 74.26 69.80 75.67 66.53 79.20 64.16 Z" />
<path fill="#dbecf8" opacity="1.00" d=" M 90.05 88.03 C 101.35 88.04 112.67 87.84 123.98 88.07 C 124.09 92.03 124.08 96.00 123.95 99.97 C 112.65 99.96 101.33 100.16 90.02 99.93 C 89.91 95.96 89.91 92.00 90.05 88.03 Z" />
<path fill="#dbecf8" opacity="1.00" d=" M 47.89 144.03 C 51.44 143.27 55.10 143.76 57.77 146.24 C 67.01 155.39 75.65 165.36 87.00 171.99 C 91.31 174.31 95.08 177.84 100.00 178.84 C 107.62 176.86 113.48 171.08 120.01 167.02 C 128.86 161.02 135.39 152.40 143.31 145.33 C 145.82 143.44 149.11 144.08 152.08 144.01 C 151.99 145.11 151.62 146.08 150.95 146.95 C 140.37 162.75 126.45 176.47 109.79 185.79 C 105.98 187.71 101.66 192.51 97.08 189.89 C 80.21 180.58 64.48 168.61 53.14 152.84 C 51.44 149.92 48.48 147.48 47.89 144.03 Z" />
</g>
</svg>
